<svg xmlns="http://www.w3.org/2000/svg" viewBox="0 0 32 32" fill="none">
  <circle cx="16" cy="16" r="12" fill="#fff" stroke="#cfcfcf" stroke-width="0.8"/>
  <path d="M16 5.2 18.55 9.45 16 13.1 13.45 9.45 16 5.2Z" fill="#1a1a1a"/>
  <path d="M9.1 10.1 12.35 8.95 13.85 12.45 11.05 14.75 9.1 10.1Z" fill="#1a1a1a"/>
  <path d="M22.9 10.1 20.95 14.75 18.15 12.45 19.65 8.95 22.9 10.1Z" fill="#1a1a1a"/>
  <path d="M10.35 22.1 11.2 17.55 16 18.75 20.8 17.55 21.65 22.1 16 24.85 10.35 22.1Z" fill="#1a1a1a"/>
  <path d="M7.2 15.8 9.1 10.1 11.05 14.75 9.35 18.55 7.2 15.8Z" fill="#1a1a1a"/>
  <path d="M24.8 15.8 22.65 18.55 20.95 14.75 22.9 10.1 24.8 15.8Z" fill="#1a1a1a"/>
</svg>
